<svg xmlns="http://www.w3.org/2000/svg" id="GirlprovidingonlineSubscriptionBoxServices" viewBox="0 0 1364 960">
  <path fill="#0b3d32" d="M1146.4 893.23H1038.63a1.53 1.53 0 0 1 0-3.06H1146.4A1.53 1.53 0 0 1 1146.4 893.23ZM654.55 893.23H217.6a1.53 1.53 0 1 1 0-3.06H654.55a1.53 1.53 0 0 1 0 3.06ZM969.23 893.23H722.17a1.53 1.53 0 0 1 0-3.06H969.23a1.53 1.53 0 0 1 0 3.06Z" class="color180b3d svgShape"></path>
  <path fill="#ffe3ba" d="M803.09 195.25A128.49 128.49 0 0 1 674.6 323.74c-170.43-6.77-170.38-250.23 0-257A128.48 128.48 0 0 1 803.09 195.25ZM1187.65 456.87a88.71 88.71 0 0 1-88.71 88.71c-117.68-4.68-117.64-172.77 0-177.43A88.72 88.72 0 0 1 1187.65 456.87ZM352.93 693.8A103.12 103.12 0 0 1 249.81 796.92c-136.79-5.43-136.75-200.83 0-206.24A103.12 103.12 0 0 1 352.93 693.8Z" class="colorfff1ba svgShape"></path>
  <path fill="#0d9276" d="M1123.93,652.19c-7.21-10.13-14.4-25.08-19.3-39.48a90.56,90.56,0,0,1-5-33.1c1.84-41.64-61.11-91.28-74.1-126.21a40.8,40.8,0,0,1-3.51-10.7l-23.72,7.84h0l-24.43,8.08a41.22,41.22,0,0,1,3.56,10.69c10.41,35.79-10.52,113.17,15.78,145.5A90.64,90.64,0,0,1,1009,644.36c4.66,14.48,7.8,30.77,8.06,43.2,1.11,54.13,25,53.87,69.24,30C1135.94,710.38,1155.31,696.31,1123.93,652.19Z" class="color23c237 svgShape"></path>
  <path fill="#0b3d32" d="M1026.19,455.06,977.9,471c-.14-.59-.3-1.16-.46-1.72a41.12,41.12,0,0,0-3.56-10.68L1022,442.7a41.18,41.18,0,0,0,3.51,10.7C1025.75,453.94,1026,454.5,1026.19,455.06Z" class="color180b3d svgShape"></path>
  <path fill="#fff6e9" d="M1075.81,567.46c4.91,14.83-6.94,32.09-26.47,38.55-47.4,14.06-64.2-36.74-17.77-53.72C1051.1,545.84,1070.91,552.62,1075.81,567.46Z" class="colorffffff svgShape"></path>
  <rect width="65.72" height="23.29" x="963.31" y="433.62" fill="#0d9276" rx="4.75" transform="rotate(-18.3 996.385 445.335)" class="color23c237 svgShape"></rect>
  <polygon fill="#0d9276" points="763.29 648.12 481.59 648.12 452.8 807.83 792.08 807.83 763.29 648.12" class="color23c237 svgShape"></polygon>
  <path fill="#0b3d32" d="M832.72,785.15H412.16a18.11,18.11,0,0,0-18.11,18.11v17.26H850.83V803.26A18.11,18.11,0,0,0,832.72,785.15Z" class="color180b3d svgShape"></path>
  <rect width="685.5" height="498.55" x="279.69" y="195.25" fill="#fff6e9" rx="26.93" class="colorffffff svgShape"></rect>
  <path fill="#0b362d" d="M938.27,695.33H306.62a28.49,28.49,0,0,1-28.46-28.45V222.18a28.5,28.5,0,0,1,28.46-28.46H938.27a28.49,28.49,0,0,1,28.45,28.46v444.7A28.48,28.48,0,0,1,938.27,695.33ZM306.62,196.78a25.42,25.42,0,0,0-25.4,25.4v444.7a25.42,25.42,0,0,0,25.4,25.39H938.27a25.42,25.42,0,0,0,25.39-25.39V222.18a25.42,25.42,0,0,0-25.39-25.4Z" class="color0b2a36 svgShape"></path>
  <rect width="285.55" height="125.53" x="628.88" y="522.37" fill="#bbe2ec" rx="8.26" class="colord1e6ff svgShape"></rect>
  <rect width="137.21" height="112.5" x="626.93" y="251.78" fill="#bbe2ec" rx="8.08" class="colord1e6ff svgShape"></rect>
  <rect width="137.21" height="112.5" x="786.43" y="251.78" fill="#bbe2ec" rx="8.08" class="colord1e6ff svgShape"></rect>
  <rect width="137.21" height="112.5" x="626.93" y="384.95" fill="#bbe2ec" rx="8.08" class="colord1e6ff svgShape"></rect>
  <rect width="137.21" height="112.5" x="786.43" y="384.95" fill="#bbe2ec" rx="8.08" class="colord1e6ff svgShape"></rect>
  <path fill="#0b3d32" d="M870.32,625.16H669.14a1.53,1.53,0,0,1,0-3.06H870.32A1.53,1.53,0,0,1,870.32,625.16Z" class="color180b3d svgShape"></path>
  <path fill="#fff6e9" d="M885.31,560.64c-2-35.81-92.95-26.53-29.22,48.29a4.47,4.47,0,0,0,6.74,0C868.07,602.85,886.62,579.81,885.31,560.64Zm-25.89,21.17c-8.17,0-14.79-6.94-14.79-15.49.78-20.55,28.8-20.55,29.58,0C874.21,574.87,867.59,581.81,859.42,581.81Z" class="colorffffff svgShape"></path>
  <rect width="58.24" height="42.34" x="659.6" y="566.02" fill="#fff6e9" transform="rotate(-.33 685.872 583.617)" class="colorffffff svgShape"></rect>
  <rect width="13.28" height="6.6" x="698.74" y="594.97" fill="#bbe2ec" transform="rotate(-.33 701.464 595.816)" class="colord1e6ff svgShape"></rect>
  <rect width="18.76" height="42.34" x="659.6" y="566.13" fill="#fff6e9" transform="rotate(-.33 665.033 585.294)" class="colorffffff svgShape"></rect>
  <rect width="45.54" height="10.89" x="675.56" y="547.12" fill="#fff6e9" transform="translate(-3.16 4.01)" class="colorffffff svgShape"></rect>
  <rect width="21.64" height="10.89" x="656.11" y="547.3" fill="#fff6e9" transform="rotate(-.33 663.396 550.564)" class="colorffffff svgShape"></rect>
  <rect width="12.11" height="4.28" x="665.16" y="573.04" fill="#bbe2ec" transform="rotate(-.33 668.54 573.15)" class="colord1e6ff svgShape"></rect>
  <rect width="404.26" height="397.19" x="181.58" y="231.03" fill="#31d5ff" rx="23.17" class="colorff31b5 svgShape"></rect>
  <path fill="#ffa11a" d="M346.05,165.57l22.9,7.69c15.33,5.6,33.32-2.85,42.88-12,15.58,13.74,41.59,12.38,50.38,11.29,7.21-.7,22-4.41,19.41-19.74-5.75-34.44-56.8-26.34-56.8-26.34C399.83,129.73,363.64,153.25,346.05,165.57Z" class="colorffbd1a svgShape"></path>
  <path fill="#ffddad" d="M678.78,429.22c-26.47,17.32-82.06,23.39-100.65,16.39-23.45-8.83-26.1-28.94-26.9-39.69-1.79-24,11-62.43,32.19-61.15,22.76,1.38,33.24-11.38,45.57-21.74,15.2-12.76,40.66-18.15,56.5-2.15C710.84,346.49,714.52,405.83,678.78,429.22Z" class="colorffadfa svgShape"></path>
  <path fill="#ffddad" d="M508.32,401.41c-29.86-31.44-44-85.36-15.71-118.4,12.63-14.74,37.07-6.55,39.25,7.92,2.11,14,10,33.21,22.14,41.67,12.53,8.75,28,12.54,40.11,13.95,15.8,1.86,47.9,10,50.06,45.38,1.56,25.4-13.24,63.61-58.61,55.28C547,440.13,523.63,417.54,508.32,401.41Z" class="colorffadfa svgShape"></path>
  <path fill="#0d9276" d="M577.33,341.65c1.45-3.08,3.4-8-.52-14.81-16.85-29-37-58.33-63.85-64.64-35.27-8.28-69.36,20.61-50.18,76.48,6.39,18.63,19.24,43.46,30.77,60.29a9.05,9.05,0,0,0,9.31,3.76C527.75,397.23,567.31,362.94,577.33,341.65Z" class="color23c237 svgShape"></path>
  <path fill="#0b3d32" d="M502.86 402.73c15.24-1.79 37.28-20 45.24-26.68-5.65-.22-14.37.58-22.43.8 7.35-29 1.83-65.05-17.4-66.74C508.39 310.76 504.55 398 502.86 402.73ZM426.92 182.2c17.68-45.47-48.23-63.18-81.85-54-24.45-12-72.9 1.75-65.72 60.33 8.91 72.74-54.54 96.07-54.54 96.07S238.22 370.07 380 331.87C480.59 304.74 426.92 182.2 426.92 182.2Z" class="color180b3d svgShape"></path>
  <path fill="#ffddad" d="M325.45,217.61a66.55,66.55,0,0,0,74.69,57.27c87.06-15,70.52-140-17.43-132A66.54,66.54,0,0,0,325.45,217.61Z" class="colorffadfa svgShape"></path>
  <path fill="#0b3d32" d="M325.7,135c14.19-17.81,30.47-25.31,51.84-28.12,26.8-3.51,39.28,4.87,54.91,19.33,20.69,19.15,21.83,30.68,21.83,30.68-1.69,9.6-64.1,31.52-70.81,26.36C378,168.56,363,165.68,351.11,170.45c4.59,25.13-.88,41.62-10.92,51.41-8.29,4-21.77,1.3-24.94-1.16C315.25,220.7,304.84,161.13,325.7,135Z" class="color180b3d svgShape"></path>
  <path fill="#fff6e9" d="M371.67,197.55c15.7,0,17.53,20.06,17.53,20.06-2.12,3.92-19.92,11.25-28.85,2.64-4.35-3.94-4.51-13.27-.41-17.68A15.76,15.76,0,0,1,371.67,197.55Z" class="colorffffff svgShape"></path>
  <path fill="#0b3d32" d="M363.71,216.78a19.89,19.89,0,0,0,2,6.64c4.26,1.74,11.84.46,15.71-.92,3-7.7-1.25-19.85-9.55-19.1C366.75,203.91,363.09,209.9,363.71,216.78Z" class="color180b3d svgShape"></path>
  <path fill="#fff6e9" d="M421.92,187.09c-14.38,6.3-8.07,25.38-8.07,25.38,3.51,2.75,22.76,2.37,27.51-9.09,2.41-5.35-1.16-14-6.69-16.38A15.78,15.78,0,0,0,421.92,187.09Z" class="colorffffff svgShape"></path>
  <path fill="#0b3d32" d="M417.07 206.69a19.9 19.9 0 0 0 3.39 7.26c3.28.13 10.87-1.17 14.87-3.74 2.08-8-3.67-19.53-11.78-17.78C418.54 193.55 415.63 199.94 417.07 206.69ZM402.3 227.62c-1-.07-2.79.28-2.75-1.17a1 1 0 0 1 1.1-.94 21.86 21.86 0 0 0 10.21-1.69c-6.4-4.08-9.18-7.47-11-13.51a1 1 0 0 1 .67-1.28 1 1 0 0 1 1.28.68c1.71 5.57 4.18 8.56 10.18 12.3a2.1 2.1 0 0 1-.31 3.7A24.53 24.53 0 0 1 402.3 227.62Z" class="color180b3d svgShape"></path>
  <path fill="#40a2e3" d="M403,238.67c2.48.63,5.72-.86,7.47-2.32,10.69-8.84,20.86.78,16.32,10.2-2.48,5.14-8.74,9.39-14.5,11C386.48,266.31,378.3,233.09,403,238.67Z" class="color0178ff svgShape"></path>
  <path fill="#0b3d32" d="M399.73,250a46.42,46.42,0,0,1-11.79-1.55,1,1,0,1,1,.52-2c13.41,3.49,26.36.79,38.5-8a1,1,0,0,1,1.2,1.65C419.09,246.69,409.56,250,399.73,250Z" class="color180b3d svgShape"></path>
  <path fill="#ffddad" d="M312.1,237c6.27,10.24,18.17,14.36,26.58,9.21,19.59-13.31-2-48.5-22.73-37.07C307.55,214.29,305.82,226.76,312.1,237Z" class="colorffadfa svgShape"></path>
  <path fill="#0b3d32" d="M325.7,239.51c-6.73-2.79-9.85-10.74-9.28-15.87a13.3,13.3,0,0,1,7-10.31,1,1,0,1,1,.88,1.84,11.27,11.27,0,0,0-5.86,8.69c-.48,4.54,2.28,10.92,7.73,13.72A1,1,0,0,1,325.7,239.51Z" class="color180b3d svgShape"></path>
  <path fill="#ffddad" d="M705.67,269.65a9.88,9.88,0,0,1,10.8,11.2,25.37,25.37,0,0,1-16.4,20.3l-17.74,6.49a9.84,9.84,0,0,0-4.46,3.28l-11.33,14.83a31.87,31.87,0,0,1-24.9,12.51,9.88,9.88,0,0,1-9.93-8.6l-2.15-16.48a34.58,34.58,0,0,1,30.76-38.88Z" class="colorffadfa svgShape"></path>
  <path fill="#0d9276" d="M360.54,301.74c27.85-7.84,72.85-11.07,96.85-11,62.62.45,92.83,78,61.22,132.74-17.05,28.23-49.8,44.91-84.48,48.83C379,482.33,322.64,455,300.3,404.06h0C280.17,358.93,312.07,315.37,360.54,301.74Z" class="color23c237 svgShape"></path>
  <path fill="#0b3d32" d="M345.38,399c14.65-24,3.16-31.07-4-35.91,0,0-20.1,29.2-27.81,51.05,3.34,11.5,10.46,21.75,20.8,27.17C333.57,430.43,337.78,411.51,345.38,399Z" class="color180b3d svgShape"></path>
  <path fill="#fff6e9" d="M429.45 361.36a11.67 11.67 0 0 0 12.81 10.41c15.34-2.2 13.06-24.21-2.4-23.22A11.67 11.67 0 0 0 429.45 361.36ZM356.82 301.84c18.62 17.58 60.18 36.41 77.48 35 14.63-1.08 19.75-30.95 20.88-46.94C423.62 289.16 385.43 292.82 356.82 301.84Z" class="colorffffff svgShape"></path>
  <path fill="#ffddad" d="M367.29,298.7c-.24.06-.24.41,0,.58,19.34,14.16,51.13,28.57,63.84,27.39,7-.62,12.38-20.5,13.87-36.59a.42.42,0,0,0-.41-.44C420.45,290.36,389.4,293.12,367.29,298.7Z" class="colorffadfa svgShape"></path>
  <rect width="277.65" height="222.59" x="413.99" y="288.23" fill="#ffa017" rx="7.01" transform="rotate(-4.94 553.172 399.766)" class="colorffdb17 svgShape"></rect>
  <rect width="63.29" height="28.08" x="608.6" y="449.16" fill="#ffe4bd" rx="2.08" transform="rotate(-4.94 640.656 463.46)" class="colorfff6bd svgShape"></rect>
  <rect width="89.42" height="222.59" x="414.34" y="296.34" fill="#0b3d32" rx="7.01" transform="rotate(-4.94 459.339 407.911)" class="color180b3d svgShape"></rect>
  <rect width="218.16" height="38.59" x="481.68" y="274.13" fill="#ffe4bd" rx="3.69" transform="rotate(-4.94 591.195 293.64)" class="colorfff6bd svgShape"></rect>
  <rect width="103.66" height="38.59" x="389.03" y="287.09" fill="#ffe4bd" rx="3.69" transform="rotate(-4.94 441.182 306.562)" class="colorfff6bd svgShape"></rect>
  <path fill="#ffddad" d="M499,431a26.69,26.69,0,0,1-13,24.2L469,465.31a10.38,10.38,0,0,0-4,4.26l-8.83,17.55a33.5,33.5,0,0,1-23.29,17.8,10.4,10.4,0,0,1-11.95-7l-5.44-16.62c-6.38-19.47-5.86-35.82,13.29-43.12,14.35-5.48,40.32-13.91,56.9-16.74C492.33,420.34,498.7,424.21,499,431Z" class="colorffadfa svgShape"></path>
  <path fill="#ffddad" d="M441.24,434.14c-19.62,6.14-41.25,10.93-73.9,19.23l-5,111.11c32.51,15.87,81,11.44,105.78,6.41C457,511.33,449.68,461.09,441.24,434.14Z" class="colorffadfa svgShape"></path>
  <path fill="#ffddad" d="M424.15,523.94c-.72-2.84.46-5,2.84-5.19,21.83-2.15,45.9-6.4,65.08-13.5,9.61-3.56,18.27.08,20.39,8.27,2,7.93,1.84,14.34-7.79,21.19-19.68,14-46.54,15.68-71.59,16.42-2.72.08-3.54-1.27-4-4.21C428.08,539.77,425.89,530.85,424.15,523.94Z" class="colorffadfa svgShape"></path>
  <path fill="#ffddad" d="M420.75 547c-.71-2.84.48-5 2.86-5.18 21.83-2.1 45.91-6.29 65.12-13.34 9.61-3.54 16.64-2.19 20.37 8.33 2.7 7.63 1.8 14.34-7.85 21.17-19.72 13.94-46.58 15.56-71.63 16.23-2.73.07-3.54-1.28-4-4.22C424.64 562.79 422.48 553.86 420.75 547ZM423.74 495.18c-.72-2.84.47-5 2.85-5.19 21.82-2.15 45.89-6.4 65.08-13.51 9.61-3.55 18.11.84 20.39 8.28 2.54 8.28 1.84 14.34-7.79 21.19-19.69 14-46.55 15.68-71.59 16.41-2.73.08-3.54-1.27-4-4.2C427.67 511 425.49 502.08 423.74 495.18Z" class="colorffadfa svgShape"></path>
  <path fill="#0b3d32" d="M453.16 519.57a1.53 1.53 0 0 1-.09-3.06 151.56 151.56 0 0 0 54.57-13.36 1.53 1.53 0 1 1 1.26 2.79A154.74 154.74 0 0 1 453.16 519.57ZM459.28 548.7a1.53 1.53 0 0 1-.14-3.05 139.27 139.27 0 0 0 50.3-14.52 1.53 1.53 0 0 1 1.38 2.73A141.77 141.77 0 0 1 459.28 548.7Z" class="color180b3d svgShape"></path>
  <path fill="#ffddad" d="M231.55,370.93c12.09-38.79,51.12-79.28,94.07-72.47,19.16,3,25,28.13,13.8,37.55-10.84,9.15-23,25.91-23.89,40.66-.89,15.24,3.28,31.61,9.59,43.95,7.25,14.15,19.68,47.93-8.62,69.27C234,549.58,212.38,417.62,231.55,370.93Z" class="colorffadfa svgShape"></path>
  <path fill="#ffddad" d="M363.12,568.18c-67.37-13.82-110.77-56-129.57-103.73-7.31-23.94-1-37.4,23.67-50.79,21.14-11.48,52.1-18.37,65.47,1.74,16.2,24.38,44,33.45,76.73,32.77,30.35-.64,38.72,25.22,39,53.25C438.69,537.42,434.79,581.7,363.12,568.18Z" class="colorffadfa svgShape"></path>
  <path fill="#0d9276" d="M297.27,281.86c-34.47,8.26-67.13,49.83-75.48,75,4.23,37,81.28,62.15,105.66,49,12.3-24.83,30.37-49.5,32.15-79.39C361.19,299.68,337.4,272.24,297.27,281.86Z" class="color23c237 svgShape"></path>
  <path fill="#ffddad" d="M715.82,375.77c-2.35-4.06-5.84-8.06-15.22-7-12.4,1.38-20.53,2.31-27.73,2.86-6.73.53-10.25,8.45-9.17,17.34s5.39,14.63,13,14.86c6.88.21,19.83-1.13,32-2.68C719.5,399.63,720.54,383.3,715.82,375.77Z" class="colorffadfa svgShape"></path>
  <path fill="#ffddad" d="M711,344.1c-3.82-5.41-7.47-6.5-12.41-5.93-13.56,1.58-24.89,2.83-32.76,3.46-7.36.61-11.3,8.58-10.23,17.47s5.73,14.59,14.09,14.73c7.52.13,19.32-1.06,32.68-2.75,4.88-.62,9.09-1.39,11.18-8.54C715,357.42,714.48,349.08,711,344.1Z" class="colorffadfa svgShape"></path>
  <path fill="#ffddad" d="M707,312.5c-3.82-5.41-7.24-6.66-12.19-7.06-12.83-1-24.46,1.68-33,4.59-7,2.38-11,8.55-10.22,17.47.53,5.89,5.73,14.59,14.09,14.73,7.52.13,19.31-1.06,32.68-2.75,4.87-.62,9.09-1.39,11.17-8.54C711,325.81,710.47,317.47,707,312.5Z" class="colorffadfa svgShape"></path>
  <path fill="#0b3d32" d="M666.9 375a1.53 1.53 0 0 1-.17-3.05l28.93-3.22a1.53 1.53 0 0 1 .34 3C695.83 371.82 667 375.05 666.9 375ZM662.75 343.72a1.53 1.53 0 0 1-.13-3.06l29.51-2.74a1.53 1.53 0 0 1 .28 3.05C692.23 341 662.91 343.72 662.75 343.72Z" class="color180b3d svgShape"></path>
  <path fill="#0b3d32" d="M682.92,405.48c-14.25.45-19.55-8.29-20.2-12-2.63-10,.65-16.47,2.89-19.45-13-4.85-14.26-23.48-5.58-31.46-12.79-7.27-16-29.38,4.74-35.45A100.92,100.92,0,0,1,697,303.29a1.53,1.53,0,0,1-.12,3.06A97.94,97.94,0,0,0,665.64,310c-20.79,6.47-12.22,27.31-2.36,30.72l2.75,1c-2.38,1.67-10.55,6.3-8,18.94,2.19,9.48,10.22,11,10.56,11l3.25.55-2.51,2.13c-.28.24-6.85,6.08-3.66,18.28.75,2.87,3.84,9.55,16.35,9.73,7.83.12,18.67-1.33,26.2-2.72a1.52,1.52,0,0,1,1.78,1.22,1.54,1.54,0,0,1-1.23,1.79A159.44,159.44,0,0,1,682.92,405.48Z" class="color180b3d svgShape"></path>
  <path fill="#31d5ff" d="M331.14,91.68c-8-22.61-40.13-11.43-32.3,11.08l.73,1.79C308.93,125.15,338.84,113,331.14,91.68Z" class="colorff31b5 svgShape"></path>
  <path fill="#ffa017" d="M279.47,197.55c20.78-.14,40.55-12.42,59.44-25.73C367,152,437,130.89,437.23,131.38,399.31,45.42,241.58,88,279.47,197.55Z" class="colorffdb17 svgShape"></path>
  <path fill="#ffa017" d="M327.54 161.85s6.72 26.53 37.25 20.45c40.6-8.1 66-51.09 98.61-45.83 15.38 2.48 26 21.13 6.47 34.41 0 0 6.68-.13 13.09-7.24s4.85-27.74-22.06-37.34a99.59 99.59 0 0 0-30.7-6C388.46 119.25 357.79 144.41 327.54 161.85ZM889 596.49l161.45.13 8-17.4a5.06 5.06 0 0 0-2.74-7.32l-170.87-.14a6.19 6.19 0 0 0-3.62 8.39ZM888.79 795.7l161.45.13 8 17.41a5.07 5.07 0 0 1-2.75 7.32l-170.87-.14A6.18 6.18 0 0 1 881 812Z" class="colorffdb17 svgShape"></path>
  <path fill="#40a2e3" d="M1060.61,690.51a486.35,486.35,0,0,0-10.2-93.89L889,596.49c-11.3,59.44-11.69,137.91-.16,199.21l161.45.13A486.83,486.83,0,0,0,1060.61,690.51Z" class="color0178ff svgShape"></path>
  <path fill="#fff6e9" d="M1026.22,687.62a57.11,57.11,0,0,1-57.16,57.06c-75.75-3.06-75.64-111.28.09-114.21A57.11,57.11,0,0,1,1026.22,687.62Z" class="colorffffff svgShape"></path>
  <rect width="39.1" height="17.41" x="904.22" y="765.69" fill="#fff6e9" rx="2.66" class="colorffffff svgShape"></rect>
  <path fill="#ffa11a" d="M1013.62,704.67a10.78,10.78,0,0,1,7.16,6.52c4,11.31-17.16,17.2-31.68,15.73-11.53-1.18-19.94-7-24.47-10.86C979.39,705.79,996.85,699.63,1013.62,704.67Z" class="colorffbd1a svgShape"></path>
  <path fill="#ffa017" d="M1017.43,706c-49.73-17-44.31-46.2-68.46-56.85-2.48-1-16.4-6.62-28.48-.15-14.87,8-20.14,30.53-13.36,47.61,7.88,18.19,25.28,24.8,38.59,25.88,12.13.42,16.95-6.52,31.36-13C991.92,702.14,1004.27,701.76,1017.43,706Z" class="colorffdb17 svgShape"></path>
  <path fill="#ffa11a" d="M976.52,639.3c-12.67-.91-6.71,14.87.8,22.53a29,29,0,0,0,15.19,7.95C991.75,657.4,987.29,645.41,976.52,639.3Z" class="colorffbd1a svgShape"></path>
  <path fill="#ffa017" d="M976.52,639.3a57.87,57.87,0,0,0,23.45,9.27c14.76,2.2,22.18-3.12,32.32,2.42,1.52.83,9.86,5.59,11.42,14.22,1.93,10.63-7.29,22.26-18.56,25.67-10.93,3.31-21.59-2.55-26.66-7.3-6.77-6.12-5-12-7.66-22.66C988.7,650.69,983.79,644.08,976.52,639.3Z" class="colorffdb17 svgShape"></path>
  <path fill="#31d5ff" d="M1147.46,643.89c-1.86,39.87-6.11,132.55-8.15,177.14H1037.85c-2.71-46.12-7.94-135.46-10.37-177.14Z" class="colorff31b5 svgShape"></path>
  <path fill="#0b3d32" d="M1057.39,670.47c-9.26,0-17.11-6.92-20-16.53h40C1074.56,663.55,1066.66,670.47,1057.39,670.47Z" class="color180b3d svgShape"></path>
  <rect width="133.12" height="20.31" x="1020.91" y="635.99" fill="#0b3d32" rx="3.1" class="color180b3d svgShape"></rect>
  <path fill="#ffeacc" d="M1142.67,748.16c-.4,8.91-.82,17.72-1.2,26.16-19.58,4.5-36.94,19.73-59.72,15.59-11.1-1.84-19.14-8-28.7-11.17a25,25,0,0,0-17.56,1.52c-.5-8.59-1-17.58-1.57-26.74,14-3.76,28.09-.35,40.39,6.27,4.25,2.09,8.28,4.06,11.89,4.69,7.67,1.35,16.68-2.68,26.2-6.94C1121.54,753.45,1131.59,749,1142.67,748.16Z" class="colorffcced svgShape"></path>
  <rect width="62.26" height="31.24" x="1056.34" y="691.37" fill="#fff6e9" rx="4.05" class="colorffffff svgShape"></rect>
  <path fill="#40a2e3" d="M1017.42,143.11c-59.65,0-108,41-108,91.53,5.55,121.38,210.45,121.33,216,0C1125.41,184.09,1077.06,143.11,1017.42,143.11Z" class="color0178ff svgShape"></path>
  <path fill="#40a2e3" d="M939,344.63l7.87-63.85,54.39,42.35-60,23.29A1.69,1.69,0,0,1,939,344.63Z" class="color0178ff svgShape"></path>
  <path fill="#fff6e9" d="M1001.76,182.65a15.66,15.66,0,0,0,15.66,15.66c20.77-.82,20.76-30.49,0-31.32A15.66,15.66,0,0,0,1001.76,182.65Z" class="colorffffff svgShape"></path>
  <path fill="#fff6e9" d="M1017.42,184.16a46.3,46.3,0,0,1,46.29,46.3v46.29H971.12V230.46A46.3,46.3,0,0,1,1017.42,184.16Z" class="colorffffff svgShape"></path>
  <path fill="#fff6e9" d="M969.07,257.36h96.69c12.83.5,12.88,18.87,0,19.39H969.07C956.24,276.25,956.19,257.88,969.07,257.36Z" class="colorffffff svgShape"></path>
  <path fill="#31d5ff" d="M1061,198.31a12.3,12.3,0,0,1-12.29,12.3c-16.32-.65-16.31-24,0-24.6A12.3,12.3,0,0,1,1061,198.31Z" class="colorff31b5 svgShape"></path>
  <path fill="#0d9276" d="M283.49,733.15A8.05,8.05,0,0,1,278.91,745l-26.77,7.8c-5.66,1.87-11.61-3.82-10-9.56l6.62-27.08a8,8,0,0,1,13.28-3.88l20.14,19.28A8.15,8.15,0,0,1,283.49,733.15ZM250,743.91a1.36,1.36,0,0,0,1.62.63L274.1,738a1.41,1.41,0,0,0,.58-2.39l-16.91-16.19a1.41,1.41,0,0,0-2.36.69l-5.56,22.74A1.37,1.37,0,0,0,250,743.91Z" class="color23c237 svgShape"></path>
  <path fill="#0b3d32" d="M1107,480c-5.79.19-11-6.3-9.25-11.87,0-.1,6.61-27,6.61-27,1.51-7,10.8-9.7,15.83-4.62.5.66,22.38,21,21.67,21.15,3.39,4.85.3,12.87-5.5,14.15l-26.71,7.8A8.54,8.54,0,0,1,1107,480Zm-6.34-11.05h0c-1.44,4.36,3.76,9.29,8,7.69l26.82-7.82c3.88-.84,6-6.36,3.7-9.57a6.45,6.45,0,0,0-1-1.29l-20.14-19.28c-3.36-3.44-9.75-1.59-10.74,3.14L1101,467.69A10.71,10.71,0,0,1,1100.64,468.9Z" class="color180b3d svgShape"></path>
  <path fill="#40a2e3" d="m218.73 144.19 11.45-5.66a5.25 5.25 0 1 0-4.66-9.42l-11.45 5.67-5.66-11.45A5.25 5.25 0 1 0 199 128l5.66 11.45-11.43 5.66a5.25 5.25 0 1 0 4.66 9.41l11.43-5.65L215 160.28a5.25 5.25 0 0 0 9.41-4.66ZM1200.81 756l11.45-5.66a5.25 5.25 0 0 0-4.65-9.42l-11.46 5.67-5.66-11.45a5.25 5.25 0 0 0-9.41 4.65l5.66 11.45-11.43 5.66a5.25 5.25 0 1 0 4.66 9.41l11.43-5.66 5.65 11.44a5.25 5.25 0 0 0 9.41-4.66Z" class="color0178ff svgShape"></path>
  <path fill="#0d9276" d="M862.91,146.41A19.23,19.23,0,0,1,843.7,127.2c1.06-25.49,37.37-25.48,38.42,0A19.23,19.23,0,0,1,862.91,146.41Zm0-31.34a12.14,12.14,0,0,0-12.12,12.13c.57,16,23.68,16,24.25,0A12.14,12.14,0,0,0,862.91,115.07Z" class="color23c237 svgShape"></path>
  <path fill="#0b3d32" d="M130.26 481.88a20.76 20.76 0 0 1-20.74-20.74c1.35-27.58 40.1-27.59 41.48-.06A20.77 20.77 0 0 1 130.26 481.88Zm0-38.32c-8.16 0-17.18 5.52-17.68 17.65 1 23.38 34.39 23.36 35.36-.07C147.44 449.08 138.43 443.56 130.26 443.56ZM1276.88 822H87.12a1.53 1.53 0 1 1 0-3.06H1276.88a1.53 1.53 0 0 1 0 3.06Z" class="color180b3d svgShape"></path>
</svg>
