<svg xmlns="http://www.w3.org/2000/svg" xml:space="preserve" id="man-sees-at-subscription-expiry-date" x="0" y="0" style="enable-background:new 0 0 600 600" version="1.1" viewBox="0 0 600 600">
  <g id="Subscription_Expired_1_">
    <g id="Subscription_Expired">
      <g>
        <ellipse cx="300.065" cy="333.053" rx="250.207" ry="125.459" style="fill:#22c2dc"></ellipse>
        <g>
          <path d="M437.3144531,261.5739746c4.4809875-0.4417419,9.3954773-1.3352356,12.2028198-4.8556213
					c3.4274902-4.2979889,2.2584839-10.4715881,2.5847473-15.959198c0.4299316-7.2312317,4.8595581-14.9428558,12.0040588-16.139328
					c4.4761658-0.7496185,9.4347839,4.1538391,13.1977844,1.2283478c2.2001648-1.7105103,3.1140747-4.544342,4.1860657-7.1167908
					c4.5803833-10.9916534,14.2367859-19.7442169,25.6242371-23.2258301
					c3.424469-1.0469818,5.2136536-0.5345917,6.8279724,2.8695526c7.0955811,14.9628754-1.6953125,32.4030151-6.2281799,44.4967651
					c-0.5699463,1.5205688-1.12323,3.1847534-0.6404724,4.7352142c0.4367676,1.40271,1.6288147,2.4098816,2.5339966,3.5670319
					c4.5346069,5.7967072,1.267395,14.6025238-4.0269165,19.7147064
					c-5.294342,5.1121826-12.2887878,8.2746582-17.2733765,13.6893005
					c-5.605896,6.0895996-8.1493835,14.867157-6.6678162,23.0105286c4.4208984-0.7756042,7.7029419-4.4801025,10.1733398-8.2275085
					c2.4703979-3.7473755,4.6261597-7.8934937,8.266571-10.5189514c3.6404419-2.6254578,9.4160461-3.0338135,12.1503296,0.5256348
					c0.7550659,0.9829407,1.2255859,2.1915588,2.1417236,3.0264282c1.6210938,1.4772339,4.2072754,1.344574,6.1832275,0.3928528
					c1.9758911-0.9517212,3.5401001-2.5614929,5.2445679-3.9416199c7.1055908-5.7535095,17.2727051-7.4701843,25.8734741-4.3686218
					c3.942688,1.4217834,5.3891602,3.7218933,3.5167847,7.5118408
					c-4.3890381,8.8840637-18.0422363,12.0400391-19.9343872,19.8069153
					c-0.5406494,2.2192383-0.0336914,4.5494995-0.1547241,6.8304138c-0.2630005,4.9567871-3.8088379,9.5774536-8.5288086,11.1140747
					c-7.5929565,2.4719543-17.6612854-2.1176147-22.9590149,3.8571472
					c-3.6491699,4.1154785-2.2189331,10.5545044-3.940033,15.7786255
					c-1.4645081,4.4453125-5.4616089,7.9566956-10.0585632,8.8363037
					c-4.5490112,0.8704224-9.2481384-0.6851807-13.8531494-0.1901855
					c-6.8264771,0.7337952-12.2760315,5.7277832-17.9865417,9.5395203
					c-20.2184448,13.4956665-41.7177124,9.2511597-51.5678406-4.0968018
					c-3.3041077-4.477356-5.182251-9.8442383-6.5663452-15.2338867" style="fill:#262932"></path>
          <path d="M432.6519165 329.7901306c18.1066895-42.5198059 39.4859924-84.3687439 70.5647888-118.572464-30.0959473 39.033905-53.6321106 83.1128998-69.3267212 129.8364716M446.9703064 343.9267883c28.5260925-21.8072205 59.6064148-40.2703552 92.4017029-54.8908997-32.7839661 19.4178772-65.6426086 38.885376-96.1313782 61.7387695" style="fill:#22c2dc"></path>
          <path d="M469.1971741 259.399231c8.841217-8.1557159 17.9624329-16.4900665 29.1643982-20.8716736-12.2266235 8.3823395-23.7077026 17.8517151-34.2634583 28.2598572M496.4208679 312.8735962c9.6149597-2.9819946 19.5080261-5.0666809 29.5087585-6.2180481-12.5759277 4.8103027-27.1593628 4.311615-38.4973145 11.5740662M449.2121277 295.9420471c1.3702698-14.9075317 4.7588806-29.6282349 10.0444031-43.6345062-3.0779419 12.4207611-5.3428955 25.0428925-6.7756042 37.7588654" style="fill:#22c2dc"></path>
        </g>
        <g>
          <g>
            <g>
              <path d="M137.6828308,381.92099l5.685379-39.991272
							c-5.2182922-34.4273071-30.3562698-61.9798889-57.9843674-81.0469055
							c-10.5343323-7.2700958-21.0568314-14.6933899-32.4772568-20.5324707
							c-1.4128075-0.7223358-5.8972473-3.8340454-7.4782448-3.0929871
							c-1.7846832,0.8365326-1.2507515,5.4683228-1.3220139,7.1772308
							c-1.132885,27.1674957,6.7212219,54.7560883,22.1933174,77.2987213
							C84.3604736,348.0476685,109.5711288,367.0389404,137.6828308,381.92099z" style="fill:#0f7174"></path>
              <g>
                <path d="M131.1685333,356.2386475L46.4439278,240.7718506
								c-0.2451172-0.3339844-0.1733398-0.8027344,0.1606445-1.0478516
								c0.3334961-0.2460938,0.8032227-0.1738281,1.0483398,0.1611328l84.7246094,115.4667969
								c0.2451172,0.3339844,0.1733398,0.8027344-0.1606445,1.0478516
								C131.8854675,356.644104,131.4150391,356.5744019,131.1685333,356.2386475z" style="fill:#2fddda"></path>
              </g>
            </g>
            <g>
              <path d="M84.08992,291.520874c-0.3818359-0.1601563-0.5615234-0.5996094-0.4008789-0.9814453
							c2.7548828-6.5634766,4.3813477-13.4921875,4.8339844-20.5947266
							c0.0263672-0.4130859,0.3540039-0.7636719,0.7963867-0.7001953c0.4130859,0.0263672,0.7270508,0.3828125,0.7006836,0.7958984
							c-0.4633789,7.2695313-2.128418,14.3623047-4.9482422,21.0791016
							C84.9108734,291.5027466,84.4701233,291.6807556,84.08992,291.520874z" style="fill:#2fddda"></path>
            </g>
            <g>
              <path d="M74.9824982,280.8734131c-6.9321289-1.3564453-13.4897423-3.9345703-19.4907188-7.6640625
							c-0.3515625-0.21875-0.4594727-0.6806641-0.2412109-1.0322266c0.21875-0.3515625,0.6806641-0.4609375,1.0332031-0.2412109
							c5.8457031,3.6328125,12.2338829,6.1445313,18.9868126,7.4648438c0.40625,0.0800781,0.6713867,0.4736328,0.5917969,0.8798828
							C75.7868729,280.6682434,75.4155807,280.951355,74.9824982,280.8734131z" style="fill:#2fddda"></path>
            </g>
          </g>
          <g>
            <path d="M68.7852325,270.3421631c-0.4111328-0.046875-0.706543-0.4189453-0.659668-0.8300781
						c0.7543945-6.5976563,0.574707-13.2636719-0.5341797-19.8125c-0.0693359-0.4082031,0.2055664-0.7949219,0.6137695-0.8642578
						c0.4111328-0.0771484,0.7958984,0.2060547,0.8647461,0.6142578c1.1328125,6.6875,1.3164063,13.4951172,0.5458984,20.2324219
						C69.5708313,270.0737305,69.2241211,270.3860474,68.7852325,270.3421631z" style="fill:#2fddda"></path>
          </g>
          <g>
            <path d="M97.5513458,308.4407959c-0.3955078-0.1230469-0.6157227-0.5439453-0.4921875-0.9394531
						c2.9165039-9.3408203,4.7167969-19.0283203,5.3500977-28.7939453c0.0273438-0.4130859,0.402832-0.7294922,0.796875-0.6992188
						c0.4135742,0.0263672,0.7270508,0.3828125,0.7001953,0.796875c-0.6411133,9.8837891-2.4633789,19.6894531-5.4155273,29.1435547
						C98.3657303,308.3500671,97.9397507,308.5626526,97.5513458,308.4407959z" style="fill:#2fddda"></path>
          </g>
          <g>
            <path d="M80.4209747,299.1165771c-7.8413086-1.1591797-15.6040039-3.0966797-23.0717735-5.7587891
						c-0.3901367-0.1386719-0.59375-0.5673828-0.4545898-0.9580078c0.1386719-0.3896484,0.5664063-0.5957031,0.9584961-0.4541016
						c7.3754845,2.6289063,15.0424767,4.5419922,22.7875938,5.6865234c2.815918,0.4169922,6.0742188,0.8007813,9.1152344,0.0917969
						c0.4042969-0.0986328,0.8071289,0.1572266,0.9008789,0.5605469c0.0942383,0.4033203-0.1567383,0.8066406-0.5600586,0.9003906
						C86.9269104,299.9241943,83.6532974,299.5932312,80.4209747,299.1165771z" style="fill:#2fddda"></path>
          </g>
          <g>
            <path d="M107.8653107,323.6448975c-0.3725586-0.1806641-0.527832-0.6298828-0.347168-1.0029297
						c4.1386719-8.5214844,6.4980469-18.0302734,6.8227539-27.4990234c0.0136719-0.4140625,0.3759766-0.7324219,0.7753906-0.7246094
						c0.4135742,0.0146484,0.737793,0.3613281,0.7236328,0.7753906c-0.331543,9.6767578-2.7426758,19.3955078-6.972168,28.1044922
						C108.6876602,323.6678772,108.2416306,323.8260803,107.8653107,323.6448975z" style="fill:#2fddda"></path>
          </g>
          <g>
            <path d="M90.0205841,320.5306396c-0.7197266,0-1.4375-0.0107422-2.1513672-0.0283203
						c-6.1518555-0.1503906-12.3588867-0.6660156-18.4492188-1.53125c-0.4101563-0.0576172-0.6953125-0.4375-0.637207-0.8476563
						s0.4375-0.7050781,0.8481445-0.6367188c6.0327148,0.8564453,12.1816406,1.3662109,18.2753906,1.515625
						c4.7392578,0.1171875,10.1796875,0.0361328,14.7363281-2.4121094c0.3642578-0.1933594,0.8198242-0.0585938,1.015625,0.3066406
						c0.1962891,0.3642578,0.059082,0.8193359-0.3056641,1.015625
						C99.3316193,320.0726318,94.6416779,320.5306396,90.0205841,320.5306396z" style="fill:#2fddda"></path>
          </g>
          <g>
            <path d="M90.8428497,342.0491943c-0.40625-0.0800781-0.6704102-0.4746094-0.5898438-0.8808594
						c0.0810547-0.4072266,0.4775391-0.6669922,0.8818359-0.5898438
						c10.0874023,2.0009766,20.3925781,2.5039063,30.6308594,1.4980469
						c0.4140625-0.0439453,0.7792969,0.2607422,0.8198242,0.6728516s-0.2607422,0.7792969-0.6733398,0.8193359
						C111.5318222,344.5896301,101.0898666,344.0821533,90.8428497,342.0491943z" style="fill:#2fddda"></path>
          </g>
          <g>
            <path d="M118.5244904,339.1409912c-0.3759766-0.1738281-0.5400391-0.6191406-0.3662109-0.9951172
						c1.9858398-4.2998047,3.409668-8.8466797,4.2304688-13.5117188c0.7431641-4.2226563,0.9951172-8.5869141,1.2387695-12.8066406
						c0.0239258-0.4130859,0.3657227-0.7333984,0.7919922-0.7060547c0.4130859,0.0244141,0.7290039,0.3789063,0.7050781,0.7919922
						c-0.2460938,4.2636719-0.5004883,8.671875-1.2583008,12.9804688c-0.84375,4.7929688-2.3061523,9.4628906-4.3466797,13.8808594
						C119.346611,339.1501465,118.9012375,339.3148804,118.5244904,339.1409912z" style="fill:#2fddda"></path>
          </g>
        </g>
        <g>
          <g>
            <g>
              <path d="M156.7301025,359.6786499l15.5630798-37.2748718
							c3.6103516-34.632843-13.787796-67.6232452-35.7306976-93.0274506
							c-8.3666077-9.6863708-16.6832275-19.5180664-26.2674408-28.0423737
							c-1.1856537-1.0545349-4.7430573-5.1943054-6.4596405-4.8748169
							c-1.9377289,0.3606567-2.5861893,4.9778137-3.0850601,6.6138306
							C86.3588486,250.2684937,97.7580795,305.7038879,156.7301025,359.6786499z" style="fill:#0179fc"></path>
              <g>
                <path d="M157.5830841,333.6566162c-0.2978516,0-0.5800781-0.1787109-0.6967773-0.4726563
								l-52.9521484-133.0673828c-0.1533203-0.3847656,0.034668-0.8212891,0.4194336-0.9746094
								c0.3842773-0.1523438,0.8212891,0.0351563,0.9741211,0.4199219l52.9521484,133.0673828
								c0.1533203,0.3847656-0.034668,0.8212891-0.4194336,0.9746094
								C157.7696075,333.6400146,157.6753693,333.6566162,157.5830841,333.6566162z" style="fill:#2fddda"></path>
              </g>
            </g>
            <g>
              <path d="M127.6031036,258.7034912c-0.3291016-0.2519531-0.3925781-0.7226563-0.1411133-1.0517578
							c4.3168945-5.6582031,7.6337891-11.9541016,9.859375-18.7148438c0.1293945-0.3925781,0.5537109-0.6142578,0.9467773-0.4775391
							c0.3935547,0.1289063,0.6074219,0.5527344,0.4780273,0.9462891c-2.277832,6.9199219-5.6733398,13.3652344-10.0917969,19.15625
							C128.4035187,258.8908081,127.9331131,258.9542542,127.6031036,258.7034912z" style="fill:#2fddda"></path>
            </g>
            <g>
              <path d="M121.4668732,246.1068115c-6.3686523-3.0566406-12.0668945-7.2011719-16.9360352-12.3203125
							c-0.2856445-0.2998047-0.2734375-0.7744141,0.0263672-1.0595703c0.3007813-0.2871094,0.7744141-0.2753906,1.0605469,0.0263672
							c4.7431641,4.9853516,10.2939453,9.0234375,16.4985352,12.0019531c0.3730469,0.1787109,0.5307617,0.6269531,0.3515625,1
							C122.2875824,246.1321869,121.8357468,246.2852325,121.4668732,246.1068115z" style="fill:#2fddda"></path>
            </g>
          </g>
          <g>
            <path d="M118.1182404,234.3568115c-0.3862305-0.1494141-0.5786133-0.5839844-0.4296875-0.9697266
						c2.3901367-6.1962891,3.8930664-12.6923828,4.4667969-19.3095703c0.0351563-0.4130859,0.4023438-0.7177734,0.8120117-0.6826172
						c0.4125977,0.0361328,0.7182617,0.3994141,0.6821289,0.8115234
						c-0.5859375,6.7578125-2.1206055,13.3925781-4.5615234,19.7197266
						C118.9377365,234.3161163,118.5006409,234.503891,118.1182404,234.3568115z" style="fill:#2fddda"></path>
          </g>
          <g>
            <path d="M136.374588,278.46521c-0.3515625-0.21875-0.4589844-0.6816406-0.2402344-1.0332031
						c5.1748047-8.3085938,9.3540039-17.2324219,12.4213867-26.5214844
						c0.1298828-0.3935547,0.5512695-0.6123047,0.9477539-0.4765625c0.3930664,0.1298828,0.6069336,0.5537109,0.4770508,0.9472656
						c-3.1054688,9.4023438-7.3354492,18.4335938-12.5727539,26.84375
						C137.1885223,278.5776367,136.7239685,278.6833801,136.374588,278.46521z" style="fill:#2fddda"></path>
          </g>
          <g>
            <path d="M131.5074005,267.6322021c-0.585144-0.118042-2.7278595,0.3141174-9.3657227-2.5
						c-7.2978516-3.09375-14.3237305-6.921875-20.8818359-11.3769531c-0.3427734-0.2324219-0.4316406-0.6992188-0.1992188-1.0419922
						c0.2333984-0.3417969,0.7011719-0.4306641,1.0419922-0.1982422
						c6.4775391,4.3994141,13.4165039,8.1806641,20.6245117,11.2363281
						c2.6210938,1.1113281,5.6787109,2.3027344,8.7988281,2.3808594c0.4140625,0.0107422,0.7412109,0.3544922,0.730957,0.7685547
						C132.2466583,267.30896,131.912674,267.6322021,131.5074005,267.6322021z" style="fill:#2fddda"></path>
          </g>
          <g>
            <path d="M142.5323029,295.7747803c-0.3149414-0.2685547-0.3525391-0.7421875-0.0834961-1.0576172
						c6.1494141-7.2060547,10.824707-15.8164063,13.5209961-24.8984375
						c0.1181641-0.3964844,0.5351563-0.6240234,0.9321289-0.5048828c0.3969727,0.1171875,0.6235352,0.5351563,0.5053711,0.9326172
						c-2.7548828,9.28125-7.5332031,18.0800781-13.8178711,25.4453125
						C143.3213806,296.0067139,142.8455048,296.0435486,142.5323029,295.7747803z" style="fill:#2fddda"></path>
          </g>
          <g>
            <path d="M134.99617,289.6175537c-7.5881271,0-21.5004578-5.1167603-28.4975586-8.0371094
						c-0.3818359-0.1601563-0.5625-0.5986328-0.402832-0.9814453c0.159668-0.3818359,0.5981445-0.5605469,0.980957-0.4033203
						c5.6245117,2.3476563,11.4472656,4.3886719,17.3061523,6.0664063
						c4.5600586,1.3046875,9.8442383,2.5947266,14.8691406,1.3720703c0.4018555-0.0996094,0.8076172,0.1474609,0.9057617,0.5507813
						c0.0981445,0.4023438-0.1484375,0.8085938-0.5512695,0.90625
						C138.0908966,289.4603271,136.5479279,289.6175537,134.99617,289.6175537z" style="fill:#2fddda"></path>
          </g>
          <g>
            <path d="M151.1148224,318.5931396c-10.3061523-1.6230469-20.2944336-4.7480469-29.6879883-9.2880859
						c-0.3730469-0.1796875-0.5292969-0.6279297-0.3491211-1.0009766c0.1791992-0.3730469,0.628418-0.5332031,1.0014648-0.3486328
						c9.2612305,4.4746094,19.1088867,7.5556641,29.269043,9.1552734c0.4091797,0.0644531,0.6884766,0.4482422,0.6240234,0.8574219
						C151.9096069,318.3670959,151.5388031,318.6559448,151.1148224,318.5931396z" style="fill:#2fddda"></path>
          </g>
          <g>
            <path d="M148.9497833,313.4554443c-0.3203125-0.2626953-0.3671875-0.7353516-0.1044922-1.0556641
						c6.5527649-7.9881287,8.9821014-15.0048523,11.9145508-24.0966797
						c0.1274414-0.3935547,0.5493164-0.6103516,0.9443359-0.4833984c0.394043,0.1269531,0.6103516,0.5498047,0.4833984,0.9443359
						c-3.0199738,9.3599854-5.4894409,16.4277954-12.1821289,24.5869141
						C149.7423096,313.6712036,149.270462,313.717804,148.9497833,313.4554443z" style="fill:#2fddda"></path>
          </g>
        </g>
        <path d="M447.3374329,379.1454468c0.2853394,9.546875-7.3834534,17.4458008-16.9303284,17.4458008H169.5844879
				c-9.1601868,0-16.6631927-7.2728577-16.9302216-16.4239197l-6.306366-210.1236877
				c-0.2853394-9.5468903,7.3834381-17.4367065,16.9304352-17.4367065h260.8225098
				c9.1603088,0,16.6632996,7.2730713,16.9303284,16.4240417L447.3374329,379.1454468z" style="fill:#262932"></path>
        <path d="M433.6526794,182.0518951H154.4882202c0.2837524,9.4699554,5.5489502,185.1890717,5.836853,194.7973785
				c0.2053223,6.7115173,5.6233215,11.9739685,12.3348389,11.9739685h254.4726257
				c6.9618835,0,12.5413513-5.7426147,12.3348389-12.7120972l-5.7623291-192.3159943L433.6526794,182.0518951z" style="fill:#fff"></path>
        <g>
          <path d="M382.9914551,355.7729187l-82.5228577,20.9160461
					c-5.8790588,1.4900818-12.0617371-1.910614-13.8094177-7.5956421l-13.2853088-43.2157288
					c-1.7476807-5.6850586,1.6014404-11.5016479,7.4804993-12.9917603l82.5228577-20.9160461
					c5.8790588-1.4900818,12.0617371,1.910614,13.8094177,7.5956421l13.2853088,43.2157288
					C392.219635,348.466217,388.8705139,354.2828064,382.9914551,355.7729187z" style="fill:#d0363c"></path>
          <path d="M298.411499,369.9981995c-2.0541687,0.5206299-4.2224731-0.6719971-4.8331299-2.6583862
					l-13.2853699-43.2159729c-0.6106567-1.9863892,0.5639038-4.0262756,2.6180725-4.546936l82.5229797-20.9160767
					c2.0541687-0.5206604,4.2224731,0.6719971,4.8331299,2.6583862l13.2853699,43.2159729
					c0.6106567,1.9863892-0.5639038,4.0262756-2.6180725,4.546936L298.411499,369.9981995z" style="fill:#ee5d5f"></path>
          <g>
            <path d="M314.2647095 328.2484131c-.3955078-1.0662231-1.4060059-1.7418823-2.5800781-1.4433594-.4502563.1130371-.9276123.3651733-1.2099609.7539063l-3.1396484 4.0976563c-1.2856445 1.6152954.5414429 3.7507935 2.1816406 3.3339844.8894043-.223938.9122314-.6958618 2.1399536-2.4351807l5.5299683 14.8365479c.6911011 1.8539429 3.1016846 1.9559937 3.8115234.5302734.2285156-.4589844.2412109-.9619141.0380859-1.5068359L314.2647095 328.2484131zM325.0440063 323.0755615c-3.5058594.8885498-5.0151367 3.6036377-4.9755859 7.1767578.0545044 4.9213867 3.3157959 12.8654785 8.5673828 15.1142578 2.9684448 1.2730103 6.9177246.4110718 8.6191406-2.1835938 2.8712769-4.3925171.0130005-12.4827271-3.2070313-16.4736328C331.7377319 323.8460693 328.6521606 322.1600342 325.0440063 323.0755615zM333.9092407 340.5560303c-.7492676 1.3413086-2.5447998 1.9335938-4.2792969 1.0849609-3.1323242-1.5325928-5.303772-7.7000122-5.4931641-10.5615234-.1277466-1.9545288.4035645-3.7504272 2.3125-4.2333984 1.9683228-.4984741 3.592041.7857056 4.7958984 2.4316406C332.9608154 331.623291 335.4543457 337.7862549 333.9092407 340.5560303zM345.2998657 326.1966553c-.8085327.2045288-2.0980225.87323-2.7556763 1.546814l-1.0866699-4.5293579 7.3521118-1.8631592c2.220459-.5631104.8954468-4.0098877-1.2890625-3.4570313l-8.5585938 2.1699219c-.9396362.2359009-1.3810425 1.0703735-1.2148438 1.9580078 2.053772 8.1144409 1.7879639 7.9329224 2.4082031 8.9873047.2353516.3994141.5683594.7109375.9970703.9335938.4287109.2236328.9697266.2529297 1.6210938.0878906.8024902-.2026978.9396973-.6563721 2.0068359-1.5742188 1.1998291-1.0377808 3.5328369-1.2824097 5.3330078.2646484 1.1951904 1.0253296 1.8214111 2.9509277 1.5722656 4.3486328-.2470093 1.3859253-1.2751465 2.5950928-3.2841797 3.1025391-.788147.2009277-1.7202148-.0056763-2.4960938-.2617188-.6816406-.2617188-1.2001953-.3496094-1.5556641-.2597656-.5332031.1357422-.8837891.3974609-1.0537109.7832031-.3406982.7817993-.0028076 1.4588623.5605469 2.1113281.2851563.3300781.5986328.5761719.9414063.7431641.7050781.3251953 1.5175781.5039063 2.4355469.5332031 2.6414185.0898438 5.4501953-1.3339844 6.4267578-2.2822266C358.8097534 334.5444946 352.923584 324.2597656 345.2998657 326.1966553z" style="fill:#fff"></path>
          </g>
        </g>
        <g>
          <path d="M206.2725372 215.3480225c-3.6742096 0-4.3646088-5.2046509-2.6054688-7.0810547 1.0014038-1.0679321 2.8069916-1.3275909 4.5737305.0976563l.0957031.0771484 1.7011719-2.0302734-.0917969-.0810547c-4.0233459-3.5438385-11.0791321-1.3722687-10.6601563 5.1152344.4459229 6.9181366 8.361145 8.3098297 11.5092773 4.7255859l.0771484-.0869141-1.9511719-1.9794922C208.8209381 214.1792297 207.9525757 215.3480225 206.2725372 215.3480225zM222.8408966 204.8831787h-3.2885742c.2371368 6.1804504 1.0041351 8.7315063-.109375 9.9189453-.3442383.3671875-.8525391.5458984-1.5541992.5458984-1.6142578 0-2.3652344-.9667969-2.512207-3.2333984l-.465332-7.2314453h-3.402832l.4482422 6.9541016c.2709961 4.2001953 2.2631836 6.2421875 6.0913086 6.2421875 3.9991455 0 5.4977417-2.2675629 5.2397461-6.2578125L222.8408966 204.8831787zM236.7271271 208.958374c-.1743164-2.7041016-2.112793-4.0751953-5.7612305-4.0751953h-5.1547852c.0980225 1.5229034-.2838593-4.409317.8344727 12.9628906h3.402832l-.2949219-4.5761719h1.5317383l2.9575195 4.5761719h3.8325195l-3.5288086-5.1533203C236.0122833 212.0170898 236.8435974 210.7656708 236.7271271 208.958374zM229.3765411 207.4144287c1.1477509.1317139 3.8766632-.5240631 4.0117188 1.5595703.1373749 2.1508179-2.5445251 1.6825562-3.7973633 1.7646484L229.3765411 207.4144287zM249.8394318 208.958374c-.1743164-2.7041016-2.112793-4.0751953-5.7612305-4.0751953h-5.1547852c.0980225 1.5229034-.2838593-4.409317.8344727 12.9628906h3.402832l-.2949219-4.5761719h1.5317383l2.9575195 4.5761719h3.8325195l-3.5288086-5.1533203C249.124588 212.0170898 249.9559021 210.7656708 249.8394318 208.958374zM242.4888458 207.4144287c1.1477509.1317139 3.8766632-.5240631 4.0117188 1.5595703.1373749 2.1508179-2.5445251 1.6825562-3.7973633 1.7646484L242.4888458 207.4144287zM256.1016235 215.1859131l-.172348-2.6796875h4.753891l-.1713867-2.6601563h-4.753891l-.1479492-2.3037109h5.5839691l-.1713867-2.6591797h-8.9868011c.0980225 1.5229034-.2838593-4.409317.8344727 12.9628906h9.2016449l-.1713867-2.6601563H256.1016235zM274.9414673 204.8831787h-3.2543945c.4476929 4.9467316-.0227661 3.6253967.909668 8.7539063l-1.3251953-2.3740234c-.0646057-.1009674-4.355896-6.8079224-4.0820313-6.3798828h-3.4321289c.098053 1.5229034-.283844-4.409317.8344727 12.9628906h3.2543945c-.4444885-5.1773987.0036926-3.672287-.9125977-8.7626953l1.3271484 2.3652344c.0655518.1026917 4.3574219 6.8257904 4.0839844 6.3974609h3.4321289C275.677948 216.310379 276.0638123 222.2975311 274.9414673 204.8831787zM287.9502563 204.8831787h-11.0776367l.1713867 2.6591797h3.8378906c.0793152 1.2323914-.2312927-3.5943909.6630859 10.3037109h3.4018555l-.6630859-10.3037109h3.8378906L287.9502563 204.8831787zM299.6172485 209.7816162l-.2109375-.0742188c-1.0976563-.3876953-1.8901367-.6669922-1.9321289-1.3203125-.0486145-.7745514.8075867-1.0068359 1.5805664-1.0068359 1.6127014 0 2.4949036.7819061 2.9829102 1.0380859l1.6235352-1.9941406c-.1000366-.0577087-1.8819275-1.7763672-4.7666016-1.7763672-5.536438 0-6.6575012 5.7124329-1.7290039 7.4970703l1.8588867.7041016c1.0076599.3678284 1.9768982.6367493 2.0258789 1.4052734.0553894.8729553-.8792114 1.09375-1.7563477 1.09375-1.0693359 0-2.3530273-.4873047-3.4345703-1.3027344l-.09375-.0712891-1.84375 2.1591797c.1000061.0552521 2.1242676 1.9462891 5.4619141 1.9462891 3.5848694 0 5.254364-2.0387268 5.1235352-4.0732422C304.2943726 210.6708527 300.6676636 210.3368073 299.6172485 209.7816162zM309.4483032 204.8831787h-3.402832c.098053 1.5229034-.283844-4.409317.8344727 12.9628906h3.402832C310.1847534 216.3231659 310.5666199 222.2553864 309.4483032 204.8831787zM322.453186 204.8831787h-11.0786133l.1713867 2.6591797h3.8378906c.0793152 1.2323914-.2312927-3.5943909.6630859 10.3037109h3.402832l-.6630859-10.3037109h3.8378906L322.453186 204.8831787zM335.631897 204.8831787h-3.2885742c.2371521 6.1804504 1.0041504 8.7315063-.109375 9.9189453-.3442383.3671875-.8525391.5458984-1.5541992.5458984-1.6142578 0-2.3652344-.9667969-2.512207-3.2333984l-.465332-7.2314453h-3.402832l.4482422 6.9541016c.2709961 4.2001953 2.2631836 6.2421875 6.0913086 6.2421875 3.9991455 0 5.4977417-2.2675629 5.2397461-6.2578125L335.631897 204.8831787zM344.9297485 204.8831787h-3.9511719l-3.6308594 12.9628906h3.4882813l.6665039-3.0283203h4.0620117l1.0527344 3.0283203h3.6118164C349.7280884 216.620575 352.0750732 222.3616638 344.9297485 204.8831787zM342.0498657 212.333374c.3773499-1.7546692.4147034-1.6718903 1.0014648-4.8251953 1.8132324 5.3279114 1.6367493 4.7867279 1.6499023 4.8251953H342.0498657zM359.0098267 204.8831787h-11.0786133l.1713867 2.6591797h3.8378906c.0793152 1.2323914-.2312927-3.5943909.6630859 10.3037109h3.402832l-.6630859-10.3037109h3.8378906L359.0098267 204.8831787zM364.3369751 204.8831787h-3.402832c.098053 1.5229034-.283844-4.409317.8344727 12.9628906h3.402832C365.0734253 216.3231659 365.4552917 222.2553864 364.3369751 204.8831787zM373.1641235 204.6478271c-3.8538513 0-6.3075867 2.4636383-6.0366211 6.6689453.4750977 7.375351 8.3907166 8.2102051 11.3901367 5.0117188 1.1318359-1.2070313 1.6591797-2.9453125 1.5249023-5.0273438C379.7783813 207.1976318 377.1426392 204.6478271 373.1641235 204.6478271zM375.687561 214.5950928c-.46875.5-1.0859375.7529297-1.8349609.7529297-1.8413086 0-3.0844727-1.5507813-3.2456055-4.046875-.1358032-2.1150665.6343994-3.9208984 2.7163086-3.9208984C376.901062 207.380249 377.2861938 212.889267 375.687561 214.5950928zM393.187561 204.8831787h-3.2543945c.4362183 5.0139923.0007324 3.7546844.909668 8.7539063l-1.3251953-2.3740234c-.0646057-.1009674-4.355896-6.8079224-4.0820313-6.3798828h-3.4321289c.098053 1.5229034-.283844-4.409317.8344727 12.9628906h3.2543945l-.2998047-4.6455078c-.0843811-1.3243408-.3802185-2.8251953-.612793-4.1171875l1.3271484 2.3652344c.0655518.1026917 4.3574219 6.8257904 4.0839844 6.3974609h3.4321289C393.9240417 216.310379 394.309906 222.2975311 393.187561 204.8831787z" style="fill:#272a33"></path>
        </g>
        <path d="M433.7050171,183.7952271H154.5406494l-0.3218689-10.7082825
				c-0.2073975-6.9753113,5.3781738-12.7122803,12.3347473-12.7122803h254.4726257
				c6.7113342,0,12.1294556,5.2569733,12.3348999,11.9683685L433.7050171,183.7952271z" style="fill:#0f7174"></path>
        <circle cx="421.227" cy="171.481" r="4.646" style="fill:#fffffd"></circle>
        <circle cx="407.615" cy="171.481" r="4.646" style="fill:#fffffd"></circle>
        <circle cx="392.434" cy="171.481" r="4.646" style="fill:#fffffd"></circle>
        <circle cx="198.67" cy="171.481" r="4.646" style="fill:#f15d5d"></circle>
        <circle cx="185.059" cy="171.481" r="4.646" style="fill:#007bf9"></circle>
        <circle cx="169.877" cy="171.481" r="4.646" style="fill:#007bf9"></circle>
        <g>
          <path d="M306.5308533 252.0911102h-26.9959412c-2.1760254 0-3.940033-1.7640076-3.940033-3.940033v-.0000153c0-2.1760101 1.7640076-3.940033 3.940033-3.940033h26.9959412c2.1760254 0 3.940033 1.7640228 3.940033 3.940033v.0000153C310.4708862 250.3271027 308.7068787 252.0911102 306.5308533 252.0911102zM364.2490845 252.0911102h-26.9959106c-2.1760254 0-3.940033-1.7640076-3.940033-3.940033v-.0000153c0-2.1760101 1.7640076-3.940033 3.940033-3.940033h26.9959106c2.1760254 0 3.9400635 1.7640228 3.9400635 3.940033v.0000153C368.1891479 250.3271027 366.4251099 252.0911102 364.2490845 252.0911102z" style="fill:#e5ecee"></path>
          <g>
            <g>
              <path d="M246.5728302,258.8919678h-14.1162109c-4.0996094,0-7.4345703-3.3349609-7.4345703-7.4345703v-6.6123047
							c0-4.0996094,3.3349609-7.4345703,7.4345703-7.4345703h14.1162109c4.0996094,0,7.4345703,3.3349609,7.4345703,7.4345703
							v6.6123047C254.0074005,255.5570068,250.6724396,258.8919678,246.5728302,258.8919678z M232.4566193,238.9105225
							c-3.2724609,0-5.9345703,2.6621094-5.9345703,5.9345703v6.6123047c0,3.2724609,2.6621094,5.9345703,5.9345703,5.9345703
							h14.1162109c3.2724609,0,5.9345703-2.6621094,5.9345703-5.9345703v-6.6123047
							c0-3.2724609-2.6621094-5.9345703-5.9345703-5.9345703H232.4566193z" style="fill:#1da6c3"></path>
            </g>
            <g>
              <path d="M237.1741791,255.0045166l-6.6754456-4.1778717l1.9545288-3.1215057l5.2783203,3.3031158
							l7.9116364-9.9911346l2.8877411,2.2853851l-8.9356537,11.2839661
							C239.0090179,255.3258972,237.9655304,255.5,237.1741791,255.0045166z" style="fill:#0c7172"></path>
            </g>
          </g>
        </g>
        <g>
          <path d="M306.5308533 288.8203735h-26.9959412c-2.1760254 0-3.940033-1.7640076-3.940033-3.940033l0 0c0-2.1760254 1.7640076-3.940033 3.940033-3.940033h26.9959412c2.1760254 0 3.940033 1.7640076 3.940033 3.940033l0 0C310.4708862 287.056366 308.7068787 288.8203735 306.5308533 288.8203735zM364.2490845 288.8203735h-26.9959106c-2.1760254 0-3.940033-1.7640076-3.940033-3.940033l0 0c0-2.1760254 1.7640076-3.940033 3.940033-3.940033h26.9959106c2.1760254 0 3.9400635 1.7640076 3.9400635 3.940033l0 0C368.1891479 287.056366 366.4251099 288.8203735 364.2490845 288.8203735z" style="fill:#e5ecee"></path>
          <g>
            <g>
              <path d="M246.5728302,295.6204834h-14.1162109c-4.0996094,0-7.4345703-3.3349609-7.4345703-7.4345703v-6.6113281
							c0-4.0996094,3.3349609-7.4345703,7.4345703-7.4345703h14.1162109c4.0996094,0,7.4345703,3.3349609,7.4345703,7.4345703
							v6.6113281C254.0074005,292.2855225,250.6724396,295.6204834,246.5728302,295.6204834z M232.4566193,275.6400146
							c-3.2724609,0-5.9345703,2.6621094-5.9345703,5.9345703v6.6113281c0,3.2724609,2.6621094,5.9345703,5.9345703,5.9345703
							h14.1162109c3.2724609,0,5.9345703-2.6621094,5.9345703-5.9345703v-6.6113281
							c0-3.2724609-2.6621094-5.9345703-5.9345703-5.9345703H232.4566193z" style="fill:#1da6c3"></path>
            </g>
            <g>
              <path d="M237.1741791,291.7337952l-6.6754456-4.177887l1.9545288-3.1214905l5.2783203,3.3031006
							l7.9116364-9.9911194l2.8877411,2.2853699l-8.9356537,11.2839661
							C239.0090179,292.0551453,237.9655304,292.229248,237.1741791,291.7337952z" style="fill:#0c7172"></path>
            </g>
          </g>
        </g>
        <g>
          <path d="M209.3954468,216.8824463c0,0,11.3231812,24.5651703,11.7949829,52.5586243
					c0,0,0.1572723,12.7385864-13.5249176,10.8513794l-6.6051941-0.9436035l-10.5237274-22.960907l-9.1875-19.7941589
					l15.8831787-18.5219727" style="fill:#ff9d7b"></path>
          <path d="M205.7294617,305.2787781l-26.0406494,2.7478638l-11.6408539-3.1530762
					c-0.795578-0.6856079,2.8704376,2.4736023-7.7494659-6.6781311c0,0,9.7533722-9.8866882,6.950119-20.4450989
					c-2.8089447-10.5583496,0.5051117-13.3617249,0.5051117-13.3617249l13.5948944-8.954071l16.2317047,7.843811
					l3.6916351,11.5298767c0.0116882,0.149292-0.0649567,14.196167,4.4575043,21.9161377
					C210.2759857,304.4738464,205.7294617,305.2787781,205.7294617,305.2787781z" style="fill:#ff9d7b"></path>
          <path d="M201.3773956,278.1445007c-2.5114288,5.4407349-4.4629517,7.2470398-8.648819,9.3981934
					c-5.978653,3.0864563-12.5289612,5.0626831-19.2126312,5.8009949c-1.720932,0.1887207-3.5028381,0.3108826-5.0238647,1.1324463
					c-2.4591522,1.3323059-3.6638489,4.1412048-4.6631012,6.7613525l-3.5304871-3.0420532
					c0,0,9.7533722-9.8866882,6.950119-20.4450989c-2.8089447-10.5583496,0.5051117-13.3617249,0.5051117-13.3617249
					l13.5948944-8.954071l16.2317047,7.843811l3.6916351,11.5298767
					C201.2719574,274.8082275,201.2662659,276.1127625,201.3773956,278.1445007z" style="fill:#ee5d5f"></path>
          <ellipse cx="194.252" cy="520.198" rx="111.263" ry="8.619" style="fill:#eaeff1"></ellipse>
          <path d="M127.7576904,457.5295715c0,0,0.5039215,42.8336792,4.7872925,60.4710999
					c0,0,94.990036,6.2990723,132.5325012,0l-28.2002411-77.3526306L127.7576904,457.5295715z" style="fill:#262932"></path>
          <g>
            <path d="M183.5386505,521.0179443l-7.0087891-23.0527344
						c-0.1201172-0.3955078,0.1035156-0.8144531,0.4995117-0.9355469c0.3979492-0.1181641,0.8154297,0.1035156,0.9360352,0.5
						l7.0087891,23.0527344c0.1201172,0.3955078-0.1035156,0.8144531-0.4995117,0.9355469
						C184.0658264,521.6386719,183.6567535,521.406189,183.5386505,521.0179443z" style="fill:#e8e9f0"></path>
          </g>
          <g>
            <path d="M179.4824982,489.8724365h-7.2148438c-7.7768555,0-14.1040039-6.3271484-14.1040039-14.1044922
						c0-0.4140625,0.3359375-0.75,0.75-0.75h33.9228516c0.4140625,0,0.75,0.3359375,0.75,0.75
						C193.5865021,483.5452881,187.2593536,489.8724365,179.4824982,489.8724365z M159.6856232,476.5179443
						c0.3896484,6.6025391,5.8842773,11.8544922,12.5820313,11.8544922h7.2148438
						c6.6977539,0,12.1923828-5.2519531,12.5820313-11.8544922H159.6856232z" style="fill:#e8e9f0"></path>
          </g>
          <g>
            <path d="M256.0205994,519.3538818l-16.3027496-47.3330078
						c-0.1352539-0.3916016,0.0732422-0.8183594,0.4648438-0.953125c0.3911133-0.1376953,0.8183594,0.0742188,0.953125,0.4648438
						l16.3027496,47.3330078c0.1352539,0.3916016-0.0732422,0.8183594-0.4648438,0.953125
						C256.5966187,519.9512939,256.1590576,519.7559814,256.0205994,519.3538818z" style="fill:#e8e9f0"></path>
          </g>
          <path d="M250.2337189,417.8992615l5.636673,50.9751892
					c-37.9374695,22.8179626-116.7967682,17.3605957-136.7506714-5.8817444l4.4683228-69.711731
					c0,0,5.2502136-75.8786316,11.6198425-85.256134c0,0,2.3699799-4.0955505,9.0704651-9.6407776
					c0,0-3.1191864-7.7402039,9.9351959-8.5488892c0,0,2.8680573-1.0599365,2.7792816,3.4675598
					c0,0,17.044632,9.4100342,51.577774-0.6214294c0,0,18.5850372-6.4482422,16.9107361,10.7688599" style="fill:#0f7174"></path>
          <path d="M135.2078857,308.0248413c0,0-46.3422699,61.1491394-44.4321823,94.4392395
					s52.9366989,42.8405151,52.9366989,42.8405151L135.2078857,308.0248413z" style="fill:#0f7174"></path>
          <path d="M289.0175171,375.2071228c0.5231934-2.3500366,2.7642212-3.8305054,4.3279419-5.6611633
					c5.4891968-6.426239,5.1308289-21.5371704,10.740509-30.1735535c0.6537781-1.0065613,1.521759-1.930481,2.6462097-2.3502502
					c1.1244507-0.4197998,2.5353394-0.2221985,3.3013611,0.7018127c0.7806091,0.9416504,0.711731,2.3034363,0.576355,3.519043
					c-0.4520264,4.0585632-1.1876221,8.0855713-2.199707,12.0418396c1.1764526-0.8015747,1.550354-1.6994019,2.6781311-2.5681458
					s2.8475342-1.3009338,3.9206543-0.365509c0.6820374,0.5944824,0.8920898,1.555481,1.0154419,2.4518127
					c0.3209534,2.3325806,0.0734863,5.168335-1.9648132,6.3469849c3.4249878-4.0318604,6.355957-2.4794922,5.9976501,1.0358887
					c-0.1821594,1.7871399-0.9193115,3.5137939-2.0840454,4.8814087c0.3587341-1.8431091,3.194397-2.1787415,4.5043335-0.8334351
					c6.2076111,6.3752136-15.134613,22.4519348-19.3718262,25.8300476" style="fill:#ff9d7b"></path>
          <path d="M300.0649414,354.4468994c-0.4268799-2.2225037-2.1754761-4.202179-4.3916016-4.6608887
					c-2.216156-0.4586792-4.7330933,0.8078308-5.4738159,2.9462891c-0.3648071,1.0531616-0.3089294,2.1998901-0.2305908,3.311676
					c0.5037842,7.1512756,1.7590637,14.2493591,3.7384644,21.1396484" style="fill:#ff9d7b"></path>
          <path d="M276.2114563,376.4819336c0,0,8.464325-9.8029175,20.5295105-4.1662292
					c12.0651855,5.6366577,17.9469604,20.3410339,6.4285278,41.4173279
					c-11.5184326,21.0762634-44.8483582,21.0762634-52.4456329,15.4396057
					c-7.5972595-5.6366882-35.2905121-62.7387085-35.2905121-62.7387085l0.4901428-40.9271851l9.5578461-22.0565796
					c0,0,12.9888763-0.4901428,22.7917938,13.7240906S276.2114563,376.4819336,276.2114563,376.4819336z" style="fill:#0f7174"></path>
          <g>
            <path d="M245.5772247,407.2640381c-6.7758789-33.6357422-18.7314453-72.3251953-18.8515625-72.7128906
						c-0.1225586-0.3955078,0.0986328-0.8154297,0.4941406-0.9384766c0.3999023-0.1191406,0.8164063,0.0996094,0.9384766,0.4951172
						c0.1201172,0.3867188,12.0981445,39.1474609,18.8896484,72.859375c0.081543,0.40625-0.1811523,0.8017578-0.5874023,0.8837891
						C246.0436554,407.9326782,245.6573486,407.6608582,245.5772247,407.2640381z"></path>
          </g>
          <g>
            <path d="M181.5601349,317.7064209c-20.0605469,0-34.0693359-12.6777344-34.2231445-12.8193359
						c-0.3046875-0.28125-0.3237305-0.7548828-0.043457-1.0595703c0.2797852-0.3056641,0.7539063-0.3251953,1.0600586-0.0439453
						c0.1645508,0.1513672,16.7783203,15.1699219,39.5673828,11.9804688
						c22.9355469-3.203125,33.9799805-10.9150391,34.0888672-10.9921875
						c0.3374023-0.2392578,0.8056641-0.1611328,1.0458984,0.1748047c0.2402344,0.3369141,0.1625977,0.8056641-0.1743164,1.0458984
						c-0.4550781,0.3251953-11.4121094,7.9970703-34.7529297,11.2578125
						C185.8770294,317.5648193,183.6846466,317.7064209,181.5601349,317.7064209z"></path>
          </g>
          <g>
            <path d="M120.7080841,438.4573975c-0.4135742-0.0175781-0.7348633-0.3671875-0.7172852-0.78125
						c0.0385742-0.8925781,3.9023438-89.5615234,10.3457031-118.5566406
						c0.0893555-0.4042969,0.4892578-0.6621094,0.8945313-0.5693359c0.4042969,0.0898438,0.6591797,0.4912109,0.5693359,0.8955078
						c-6.4145508,28.8662109-10.2724609,117.4042969-10.3105469,118.2949219
						C121.470726,438.1778259,121.0799332,438.4897156,120.7080841,438.4573975z"></path>
          </g>
          <path d="M212.0398102,216.8824463c0,0-3.3680573,45.6191101-26.894577,59.3391418
					c-23.5265198,13.7200012-36.4958496-2.9155273-37.299942-6.6885376
					c-0.8041077-3.7730103-1.2438202-18.6935272,3.3492889-28.8120422" style="fill:#262932"></path>
          <path d="M207.7705383,247.0475006c-0.9929047,1.0213928-2.7592316,0.7767639-3.9208679-0.0476685
					s-1.9311676-2.0771942-2.8858185-3.1344299c-1.6966553-1.8789368-4.4375458-3.1844788-6.7658386-2.1904602
					c-2.3687592,1.0113068-3.2889404,3.885788-3.5078735,6.4520569c-0.752594,8.8216095,3.9547272,12.6105194,12.5119934,15.1538544
					" style="fill:#ff9d7b"></path>
          <path d="M213.9786072,220.1455688c0,0-4.8517456,8.4433594-14.3497772,16.3149261
					c-6.9723511,5.7732697-16.448288,11.2411957-28.3500366,12.8399353
					c-10.1142731,1.3600922-16.3039398-0.1664886-20.0842133-2.6811981
					c-6.7281189-4.4743042-5.8177795-12.0683136-5.8177795-12.0683136
					c1.0325775-43.7323914,43.0495911-40.3017883,43.0495911-40.3017883s13.0342255-9.092804,23.6647186,1.1991577
					C222.7272949,205.7401581,213.9786072,220.1455688,213.9786072,220.1455688z" style="fill:#007bf7"></path>
          <path d="M189.9696808,202.8231506c0,0-5.6595001,28.8120575-34.9860687,26.9255524
					c0,0-2.7440033-17.4930267,13.0340271-26.0680542c0,0-8.0605164-1.8865051-14.5775299,15.4350281
					c0,0-2.5725098,8.5750275-0.8574982,13.5485382c0,0,21.4375458,5.1450043,33.7855682-13.3770294
					C186.3681793,219.2871857,192.370697,210.3691711,189.9696808,202.8231506z" style="fill:#0e7273"></path>
          <path d="M199.62883,236.460495c-6.9723511,5.7732697-16.448288,11.2411957-28.3500366,12.8399353
					c-10.1142731,1.3600922-16.3039398-0.1664886-20.0842133-2.6811981l1.7319031-6.9223328
					c6.344986,4.8017273,20.750473,0,20.750473,0c26.5846405-7.8882446,25.552063-33.1018982,25.552063-33.1018982
					C200.972168,213.6894531,200.1893616,228.7443848,199.62883,236.460495z" style="fill:#0e7273"></path>
        </g>
        <g>
          <path d="m146.1846466 89.7278976-7.4882813-15.4892578h7.0302734c.9492493 2.5972519 1.5932617 4.1843719 3.7060547 10.2177734h.1523438c.1326141-.3780975 3.7448578-10.1154022 3.7832031-10.2177734h6.8769531l-7.4882813 15.4892578v8.1455078h-6.5722656V89.7278976zM158.7920685 88.7825851c0-6.0351563 4.5849609-9.5263672 9.4755859-9.5263672s9.4755859 3.4912109 9.4755859 9.5263672c0 6.0361328-4.5849609 9.5273438-9.4755859 9.5273438S158.7920685 94.818718 158.7920685 88.7825851zM171.018631 88.7825851c0-2.7626953-.7636719-4.5087891-2.7509766-4.5087891s-2.7509766 1.7460938-2.7509766 4.5087891c0 2.7636719.7636719 4.5087891 2.7509766 4.5087891S171.018631 91.546257 171.018631 88.7825851zM181.0283966 90.8919601V79.6927414h6.5712891v10.3994141c0 2.3271484.6113281 2.9091797 1.9111328 2.9091797 1.2226563 0 1.9101563-.4365234 2.75-1.6005859V79.6927414h6.5722656v18.1806641h-5.3496094l-.4580078-2.3994141h-.1533203c-1.5273438 1.7451172-3.2851563 2.8359375-5.8837891 2.8359375C182.7862091 98.3099289 181.0283966 95.4007492 181.0283966 90.8919601zM203.2627716 79.6927414h5.3496094l.4580078 3.1269531h.1533203c1.4130859-2.4726563 3.5527344-3.5634766 5.4257813-3.5634766 1.1835938 0 1.8339844.1455078 2.3681641.3632813l-1.0693359 5.3818359c-.6875-.1455078-1.2988281-.2910156-2.1396484-.2910156-1.3759766 0-3.0566406.7998047-3.9736328 3.0546875v10.1083984h-6.5722656V79.6927414zM225.8809357 94.928093l3.7441406-4.2910156c1.7578125 1.3457031 3.9736328 2.2910156 5.8076172 2.2910156 1.9873047 0 2.828125-.6181641 2.828125-1.6728516 0-1.1269531-1.2617188-1.4902344-3.3632813-2.2900391l-3.0947266-1.2363281c-8.3437347-3.1784134-5.8314819-13.9267578 4.2412109-13.9267578 2.828125 0 5.9609375 1.0175781 8.2529297 3.1630859l-3.2861328 3.9277344c-1.6806641-1.1279297-3.1328125-1.7089844-4.9667969-1.7089844-1.6044922 0-2.5976563.5449219-2.5976563 1.5996094 0 1.1269531 1.4130859 1.5273438 3.6679688 2.3632813 1.7689972.9725113 7.8710938 1.4886093 7.8710938 7.5996094C244.9854279 98.6968994 232.8018951 100.8560181 225.8809357 94.928093zM248.2696075 90.8919601V79.6927414h6.5712891v10.3994141c0 2.3271484.6113281 2.9091797 1.9101715 2.9091797 1.2226563 0 1.9111328-.4365234 2.7519531-1.6005859V79.6927414h6.5712891v18.1806641h-5.3486328l-.4589844-2.3994141h-.1523438c-1.5292969 1.7451172-3.2861328 2.8359375-5.8847809 2.8359375C250.0264435 98.3099289 248.2696075 95.4007492 248.2696075 90.8919601zM276.3125916 95.9095383h-.1523438l-.5351563 1.9638672h-5.1201172V72.5657883h6.5722656v5.890625l-.1533203 2.6181641c4.4365234-3.8600998 12.1503906-1.7354965 12.1503906 7.3808594 0 6.2910156-3.8974609 9.8544922-7.9472656 9.8544922C279.4463806 98.3099289 277.76474 97.5101242 276.3125916 95.9095383zM282.3497009 88.5648117c0-2.9814453-.9169922-4.2177734-2.6748047-4.2177734-.9931641 0-1.7578125.3632813-2.5976563 1.3085938v6.6904297c.7636719.6552734 1.6044922.8730469 2.4453125.8730469C281.0508728 93.2191086 282.3497009 92.0560226 282.3497009 88.5648117zM290.9063416 95.7640305l2.9042969-3.8535156c1.7568359 1.2363281 3.3242188 1.8173828 4.6611328 1.8173828 1.375 0 1.9101563-.3632813 1.9101563-1.0908203 0-.9453125-1.7578125-1.3818359-3.6679688-2.1083984-2.2158203-.8369141-4.8144531-2.4003906-4.8144531-5.3818359 0-3.5634766 3.0566406-5.890625 7.5654297-5.890625 3.1337891 0 5.3496094 1.2001953 7.0302734 2.3994141l-2.9033203 3.7089844c-1.3759766-.9453125-2.7128906-1.5263672-3.8974609-1.5263672-1.1083984 0-1.6816406.2900391-1.6816406 1.0175781 0 2.0699005 8.4824219 1.3693314 8.4824219 7.4179688 0 3.4179688-2.8271484 6.0361328-8.1757813 6.0361328C295.874115 98.3099289 292.8936462 97.2913742 290.9063416 95.7640305zM308.7100525 88.7825851c0-8.8321991 10.4763489-11.9143753 15.8183594-7.6357422l-3.0566406 4c-.8408203-.6542969-1.4521484-.8730469-2.1396484-.8730469-2.4453125 0-3.8974609 1.7460938-3.8974609 4.5087891 0 3.7076645 2.9856873 6.013504 6.7246094 3.3457031l2.5214844 4.0722656C319.7268982 100.3515625 308.7100525 98.6809616 308.7100525 88.7825851zM327.7364197 79.6927414h5.3496094l.4580078 3.1269531h.1533203c1.4130859-2.4726563 3.5527344-3.5634766 5.4248047-3.5634766 1.1845703 0 1.8339844.1455078 2.3691406.3632813l-1.0693359 5.3818359c-.6884766-.1455078-1.2998047-.2910156-2.1396484-.2910156-1.3759766 0-3.0566406.7998047-3.9736328 3.0546875v10.1083984h-6.5722656V79.6927414zM343.3243103 74.3109055c0-4.1684036 7.3359375-4.170639 7.3359375 0C350.6602478 78.4793167 343.3243103 78.4815521 343.3243103 74.3109055zM343.7061462 79.6927414h6.5722656v18.1806641h-6.5722656V79.6927414zM354.7090759 79.6927414h5.3496094l.4580078 1.6728516h.1533203c4.9238281-4.3079376 12.6083984-2.0766525 12.6083984 7.1269531 0 8.8777695-7.830658 12.1842575-12.2265625 7.9990234l.2294922 2.7636719v5.0175781h-6.5722656V79.6927414zM366.5538025 88.5648117c0-2.9814453-.9169922-4.2177734-2.6748047-4.2177734-.9931641 0-1.7568359.3632813-2.5976563 1.3085938v6.6904297c.7636719.6552734 1.6044922.8730469 2.4453125.8730469C365.2549744 93.2191086 366.5538025 92.0560226 366.5538025 88.5648117zM376.5625916 90.8919601v-6.3271484h-2.5214844v-4.6542969l2.9033203-.2177734.7646484-4.7275391h5.4248047v4.7275391h4.3564453v4.8720703h-4.3564453v6.2177734c0 2.4691162 1.6289063 3.1029053 3.9746094 2.3642578l.9931641 4.5087891c-.9931641.2900391-2.4072266.6542969-4.5087891.6542969C378.6260681 98.3099289 376.5625916 95.3284836 376.5625916 90.8919601zM394.2901306 71.1839523c4.8929749 0 4.8919067 6.2539063 0 6.2539063C389.3971252 77.4378586 389.3981934 71.1839523 394.2901306 71.1839523zM391.0039978 79.6927414h6.5722656v18.1806641h-6.5722656V79.6927414zM401.0137634 88.7825851c0-6.0351563 4.5849609-9.5263672 9.4755859-9.5263672s9.4755859 3.4912109 9.4755859 9.5263672c0 6.0361328-4.5849609 9.5273438-9.4755859 9.5273438S401.0137634 94.818718 401.0137634 88.7825851zM413.2403259 88.7825851c0-2.7626953-.7646484-4.5087891-2.7509766-4.5087891s-2.7509766 1.7460938-2.7509766 4.5087891c0 2.7636719.7646484 4.5087891 2.7509766 4.5087891S413.2403259 91.546257 413.2403259 88.7825851zM423.4024353 79.6927414h5.3496094l.4580078 2.1816406h.1533203c1.5283203-1.3818359 3.4384766-2.6181641 6.0361328-2.6181641 4.203125 0 5.9609375 2.9091797 5.9609375 7.4179688v11.1992188h-6.5722656V87.4739914c0-2.3271484-.6113281-2.9091797-1.9101563-2.9091797-1.2226563 0-1.9101563.5087891-2.9033203 1.3818359v11.9267578h-6.5722656V79.6927414zM228.5166779 113.9857101h16.046875v5.2353516h-9.4746094v3.7089844h8.0996094v5.2363358h-8.0996094v4.2177734h9.8574219v5.2363281h-16.4296875V113.9857101zM251.3643341 128.1663818l-5.4248047-8.7265701h7.0302734l1.375 2.5449219c.4970703 1.0185547 1.0322266 2.109375 1.5283203 3.1269531h.1533356c.0346069-.1025162 2.0244751-5.5689316 2.0625-5.671875h6.8017578l-5.4257813 9.4541092 5.7314453 8.7265625h-7.0302734l-1.5283203-2.5449219c-.5732422-1.0185547-1.1084137-2.109375-1.6816559-3.1279297h-.1523438c-.0474396.1148071-.4047699.9800262-2.3691406 5.6728516h-6.8007813L251.3643341 128.1663818zM267.9454041 119.4398117h5.3496094l.4580078 1.6728516h.1533203c4.9238281-4.3079376 12.6083984-2.0766525 12.6083984 7.1269608 0 8.8777618-7.830658 12.1842499-12.2265625 7.9990234l.2294922 2.7636719v5.0175781h-6.5722656V119.4398117zM279.7901306 128.3118896c0-2.9814529-.9169922-4.2177811-2.6748047-4.2177811-.9931641 0-1.7568359.3632813-2.5976563 1.3085938v6.6904373c.7636719.6552734 1.6044922.8730469 2.4453125.8730469C278.4913025 132.9661865 279.7901306 131.802124 279.7901306 128.3118896zM293.38974 110.9310226c4.8929749 0 4.8919067 6.2539063 0 6.2539063C288.4967346 117.1849289 288.4978027 110.9310226 293.38974 110.9310226zM290.1036072 119.4398117h6.5722656v18.1806717h-6.5722656V119.4398117zM301.1075134 119.4398117h5.3496094l.4580078 3.1269531h.1533203c1.4130859-2.4726563 3.5527344-3.5634766 5.4248047-3.5634766 1.1845703 0 1.8339844.1455078 2.3691406.3632813l-1.0693359 5.3818359c-.6884766-.1455078-1.2998047-.2910156-2.1396484-.2910156-1.3759766 0-3.0566406.7998047-3.9736328 3.0546875v10.1084061h-6.5722656V119.4398117zM315.70224 128.5296631c0-11.7931976 17.4990234-13.3997192 17.4990234-.7265701 0 1.0908279-.1523438 2.1816483-.2675781 2.6181717h-10.8886719c.6113281 2.1816406 2.2919922 2.9082031 4.4316406 2.9082031 1.2998047 0 2.5224609-.3632813 3.8974609-1.0908203l2.1396484 3.7089844c-2.0634766 1.3818359-4.8144531 2.109375-6.9541016 2.109375C319.9815369 138.0570068 315.70224 134.5657959 315.70224 128.5296631zM327.6231384 126.3480148c0-1.3818359-.6113281-2.6181641-2.5986328-2.6181641-1.4511719 0-2.6738281.8007813-3.0566406 2.6181641H327.6231384zM335.9502869 128.5296631c0-5.9628983 3.8974609-9.5263748 7.7949219-9.5263748 2.0634766 0 3.2861328.7275391 4.4316406 1.8183594l-.2285156-2.6181641v-5.890625h6.5712891v25.3076248H349.17099l-.4589844-1.6728516h-.1523438C344.0559082 140.2346344 335.9502869 138.1204529 335.9502869 128.5296631zM347.9483337 131.6575928v-6.6914139c-.7646484-.6542969-1.7578125-.8720703-2.5986328-.8720703-1.375 0-2.6748047 1.1630859-2.6748047 4.3632889 0 3.2724609 1.0703125 4.5087891 2.828125 4.5087891C346.4961853 132.9661865 347.2608337 132.6751709 347.9483337 131.6575928z" style="fill:#007afa"></path>
        </g>
        <path d="M306.291687 356.8406677c-.5188599 1.0206604-1.0517273 2.1061401-.9718933 3.2483215.5153198.0982056.9208679-.418335 1.1809692-.8738708.5315247-.9309387 1.0235291-1.8843994 1.4746399-2.856842.2254333-.4859924 1.3628235-2.3571167 1.1679688-2.8597717C308.4768677 351.7792358 306.5289001 356.3740845 306.291687 356.8406677zM313.4466553 360.3336182c-.5188599 1.0206909-1.0517578 2.1061401-.9718933 3.2483521.5152893.0982056.9208679-.4183655 1.1809692-.8739014.5315247-.9309387 1.0235291-1.8843994 1.4746399-2.856842.2254333-.4859924 1.3628235-2.3571167 1.1679688-2.8597717C315.6318359 355.2722168 313.6838379 359.8670349 313.4466553 360.3336182zM316.8216248 366.4085999c-.5188599 1.0206604-1.0517273 2.1061401-.9718628 3.2483215.5152893.0982056.9208374-.418335 1.1809387-.8739014.5315247-.9309082 1.0235291-1.8843689 1.4746399-2.8568115.2254333-.4860229 1.3628235-2.3571472 1.1679688-2.8597717C319.0068054 361.347168 317.0588379 365.9420166 316.8216248 366.4085999z" style="fill:#ee5d5f"></path>
      </g>
    </g>
  </g>
</svg>
